STARTFONT 2.3
FONT -FontForge-Butcherman-Book-R-Normal--9-90-72-72-P-49-ISO10646-1
SIZE 9 72 72  4
FONTBOUNDINGBOX 14 18 -1 -6
COMMENT "Generated by fontforge, http://fontforge.sourceforge.net"
COMMENT "Copyright (c) 2011, Typomondo, with Reserved Font Name  "Butcherman"."
STARTPROPERTIES 41
FOUNDRY "FontForge"
FAMILY_NAME "Butcherman"
WEIGHT_NAME "Book"
SLANT "R"
SETWIDTH_NAME "Normal"
ADD_STYLE_NAME ""
PIXEL_SIZE 9
POINT_SIZE 90
RESOLUTION_X 72
RESOLUTION_Y 72
SPACING "P"
AVERAGE_WIDTH 49
CHARSET_REGISTRY "ISO10646"
CHARSET_ENCODING "1"
FONTNAME_REGISTRY ""
CHARSET_COLLECTIONS "ISO8859-2 ISO8859-9 ISO8859-4 ISO10646-1"
BITS_PER_PIXEL 4
FONT_NAME "Butcherman-Regular"
FACE_NAME "Butcherman Regular"
COPYRIGHT "Copyright (c) 2011, Typomondo, with Reserved Font Name  "Butcherman"."
FONT_VERSION "001.004"
FONT_ASCENT 7
FONT_DESCENT 2
UNDERLINE_POSITION -1
UNDERLINE_THICKNESS 1
X_HEIGHT 6
CAP_HEIGHT 6
DEFAULT_CHAR 3
RAW_ASCENT 799
RAW_DESCENT 200
NORM_SPACE 1
RELATIVE_WEIGHT 40
RELATIVE_SETWIDTH 50
SUPERSCRIPT_X 0
SUPERSCRIPT_Y 3
SUPERSCRIPT_SIZE 5
SUBSCRIPT_X 0
SUBSCRIPT_Y 0
SUBSCRIPT_SIZE 5
AVG_LOWERCASE_WIDTH 52
AVG_UPPERCASE_WIDTH 51
ENDPROPERTIES
CHARS 331
STARTCHAR NULL.dup1
ENCODING 0
SWIDTH 161 0
DWIDTH 1 0
BBX 1 1 0 0
BITMAP
00
ENDCHAR
STARTCHAR CR
ENCODING 13
SWIDTH 161 0
DWIDTH 1 0
BBX 1 1 0 0
BITMAP
00
ENDCHAR
STARTCHAR space
ENCODING 32
SWIDTH 161 0
DWIDTH 1 0
BBX 1 1 0 0
BITMAP
00
ENDCHAR
STARTCHAR exclam
ENCODING 33
SWIDTH 350 0
DWIDTH 3 0
BBX 3 11 0 0
BITMAP
AFB0
7F90
7F70
4F50
1F40
0F30
0C20
0220
8FB0
6FC0
3850
ENDCHAR
STARTCHAR quotedbl
ENCODING 34
SWIDTH 541 0
DWIDTH 5 0
BBX 5 4 0 3
BITMAP
594930
6F4F40
3F0E20
080700
ENDCHAR
STARTCHAR numbersign
ENCODING 35
SWIDTH 583 0
DWIDTH 5 0
BBX 5 8 0 -1
BITMAP
0090A0
049490
4FFFD0
1C6D50
0A0B00
DEEF20
757500
608000
ENDCHAR
STARTCHAR dollar
ENCODING 36
SWIDTH 534 0
DWIDTH 5 0
BBX 5 12 0 -3
BITMAP
007000
00A000
04D500
4FFF50
AFFF60
9F8C50
4FF800
279F00
2FEB00
02A100
009000
003000
ENDCHAR
STARTCHAR percent
ENCODING 37
SWIDTH 828 0
DWIDTH 7 0
BBX 8 8 0 -1
BITMAP
2610B100
AF91B000
A9938340
8B692CF1
151C0CE1
00280CD1
00630230
00610000
ENDCHAR
STARTCHAR ampersand
ENCODING 38
SWIDTH 522 0
DWIDTH 5 0
BBX 5 5 0 1
BITMAP
04A100
27F310
9FFF40
39F710
04C000
ENDCHAR
STARTCHAR quotesingle
ENCODING 39
SWIDTH 300 0
DWIDTH 3 0
BBX 3 4 0 3
BITMAP
5910
6F20
3F00
1800
ENDCHAR
STARTCHAR parenleft
ENCODING 40
SWIDTH 372 0
DWIDTH 3 0
BBX 4 9 0 -1
BITMAP
0172
0AF1
4FE0
8F80
9F00
AE00
8F10
2F90
07D0
ENDCHAR
STARTCHAR parenright
ENCODING 41
SWIDTH 338 0
DWIDTH 3 0
BBX 3 10 0 -2
BITMAP
5300
AF40
9F90
6F90
0B80
0A70
0B60
1E20
B800
1000
ENDCHAR
STARTCHAR asterisk
ENCODING 42
SWIDTH 513 0
DWIDTH 5 0
BBX 5 5 0 2
BITMAP
094700
0AE400
BEFE40
07F300
0A6600
ENDCHAR
STARTCHAR plus
ENCODING 43
SWIDTH 458 0
DWIDTH 4 0
BBX 4 5 0 1
BITMAP
0210
19A0
9FFA
2AB3
0440
ENDCHAR
STARTCHAR comma
ENCODING 44
SWIDTH 361 0
DWIDTH 3 0
BBX 3 5 0 -2
BITMAP
8FB0
9FC0
5AB0
0490
0220
ENDCHAR
STARTCHAR hyphen
ENCODING 45
SWIDTH 478 0
DWIDTH 4 0
BBX 4 3 0 2
BITMAP
2544
7FF9
2653
ENDCHAR
STARTCHAR period
ENCODING 46
SWIDTH 374 0
DWIDTH 3 0
BBX 3 4 0 0
BITMAP
0120
7FD0
5FE0
3860
ENDCHAR
STARTCHAR slash
ENCODING 47
SWIDTH 291 0
DWIDTH 3 0
BBX 3 8 0 -1
BITMAP
0380
0740
0B10
2B00
5700
8200
A000
6000
ENDCHAR
STARTCHAR zero
ENCODING 48
SWIDTH 528 0
DWIDTH 5 0
BBX 5 8 0 -1
BITMAP
079400
6FFE20
8FFF40
8E9F40
7C5F30
5E7E10
2EEA00
017100
ENDCHAR
STARTCHAR one
ENCODING 49
SWIDTH 366 0
DWIDTH 3 0
BBX 3 8 0 -1
BITMAP
1570
CFC0
0FC0
0EA0
0C90
0B80
0880
0010
ENDCHAR
STARTCHAR two
ENCODING 50
SWIDTH 575 0
DWIDTH 5 0
BBX 5 8 0 -1
BITMAP
07A500
6FFF30
8FFF60
7F9F50
139F20
02EB30
6EFFE0
585370
ENDCHAR
STARTCHAR three
ENCODING 51
SWIDTH 517 0
DWIDTH 5 0
BBX 5 8 0 -1
BITMAP
189200
9FFD00
9FFF30
7DAF20
11DE00
036F20
0BDD00
035300
ENDCHAR
STARTCHAR four
ENCODING 52
SWIDTH 466 0
DWIDTH 4 0
BBX 4 9 0 -2
BITMAP
3A96
2FC0
4F80
5F50
5FA8
7EB8
9FFD
1197
0053
ENDCHAR
STARTCHAR five
ENCODING 53
SWIDTH 583 0
DWIDTH 5 0
BBX 5 8 0 -1
BITMAP
5AA980
7FFFD0
8FFFB0
7F7960
5FBA00
056F10
0BDD00
026300
ENDCHAR
STARTCHAR six
ENCODING 54
SWIDTH 582 0
DWIDTH 5 0
BBX 5 8 0 -1
BITMAP
078600
8FFF90
9FFFD0
7F8F90
4F6A40
1F8D70
0DCE70
049820
ENDCHAR
STARTCHAR seven
ENCODING 55
SWIDTH 624 0
DWIDTH 6 0
BBX 6 8 0 -1
BITMAP
589AA5
BFFFF3
8FFFE0
498DA0
001F50
006D00
00C600
01C100
ENDCHAR
STARTCHAR eight
ENCODING 56
SWIDTH 459 0
DWIDTH 4 0
BBX 4 8 0 -1
BITMAP
3993
AFFB
8FFA
6CB8
2EE3
2CC3
1DD2
0440
ENDCHAR
STARTCHAR nine
ENCODING 57
SWIDTH 584 0
DWIDTH 5 0
BBX 5 8 0 -1
BITMAP
049710
3FFF90
9FFFC0
8F8FD0
3FFFB0
274F60
2FED10
025200
ENDCHAR
STARTCHAR colon
ENCODING 58
SWIDTH 386 0
DWIDTH 3 0
BBX 3 8 0 0
BITMAP
4980
5FD0
5FE0
1100
0220
7FD0
5FE0
2860
ENDCHAR
STARTCHAR semicolon
ENCODING 59
SWIDTH 375 0
DWIDTH 3 0
BBX 3 10 0 -2
BITMAP
4980
6FC0
6FC0
1100
0000
7FC0
7FC0
5AC0
04A0
0130
ENDCHAR
STARTCHAR less
ENCODING 60
SWIDTH 459 0
DWIDTH 4 0
BBX 4 6 0 0
BITMAP
0475
0CF3
9F70
5F90
09F5
0044
ENDCHAR
STARTCHAR equal
ENCODING 61
SWIDTH 485 0
DWIDTH 4 0
BBX 4 4 0 2
BITMAP
3765
4997
49A7
2654
ENDCHAR
STARTCHAR greater
ENCODING 62
SWIDTH 432 0
DWIDTH 4 0
BBX 4 6 0 0
BITMAP
5840
2EC0
06F7
08F4
6F90
2400
ENDCHAR
STARTCHAR question
ENCODING 63
SWIDTH 577 0
DWIDTH 5 0
BBX 5 8 0 -1
BITMAP
2DFA00
8FFF60
7FCF70
146F40
00BB00
006200
04C300
03E300
ENDCHAR
STARTCHAR at
ENCODING 64
SWIDTH 930 0
DWIDTH 8 0
BBX 9 10 0 -2
BITMAP
003AA40000
04C76B7000
0B6EF8D400
56AFFB7C00
948DB95F10
9449C83F10
876B9D2D00
4C4DC9D500
0B70010000
009EE70000
ENDCHAR
STARTCHAR A
ENCODING 65
SWIDTH 494 0
DWIDTH 4 0
BBX 4 9 0 -2
BITMAP
4775
1FF9
0FF6
0FE5
1FB5
1ED5
1FD3
0871
0020
ENDCHAR
STARTCHAR B
ENCODING 66
SWIDTH 517 0
DWIDTH 5 0
BBX 5 8 0 -1
BITMAP
48A810
4FFF50
1FFF30
0E8F10
0EDC00
0D9C00
0CCB00
014200
ENDCHAR
STARTCHAR C
ENCODING 67
SWIDTH 504 0
DWIDTH 5 0
BBX 5 8 0 -1
BITMAP
07A500
7FFF30
BFFF50
9F8F40
7F1310
4F4A00
1FEA00
037100
ENDCHAR
STARTCHAR D
ENCODING 68
SWIDTH 522 0
DWIDTH 5 0
BBX 5 9 0 -2
BITMAP
368700
7FFF60
3FFF80
1F9E60
0F5B30
0D6E00
0AED00
037100
001000
ENDCHAR
STARTCHAR E
ENCODING 69
SWIDTH 570 0
DWIDTH 5 0
BBX 5 8 0 -1
BITMAP
589850
4FFF70
2FFF30
1F8600
0EF700
0D9300
09F900
014100
ENDCHAR
STARTCHAR F
ENCODING 70
SWIDTH 559 0
DWIDTH 5 0
BBX 5 8 0 -1
BITMAP
588840
2FFF50
0EFF20
0CC910
0BFD00
09B300
0BB000
024000
ENDCHAR
STARTCHAR G
ENCODING 71
SWIDTH 499 0
DWIDTH 4 0
BBX 5 8 0 -1
BITMAP
178200
9FFE20
AFFF40
8E9F20
6C5A10
4E7F10
1FDE00
056400
ENDCHAR
STARTCHAR H
ENCODING 72
SWIDTH 726 0
DWIDTH 7 0
BBX 7 9 0 -2
BITMAP
36839710
4FB3FC00
1FA5F700
0EA5F400
0BFFF100
09B8E000
08B9B000
02134000
00020000
ENDCHAR
STARTCHAR I
ENCODING 73
SWIDTH 401 0
DWIDTH 4 0
BBX 4 8 0 -1
BITMAP
7A92
3FE0
0FD0
0FB0
0DA0
0C90
0880
0120
ENDCHAR
STARTCHAR J
ENCODING 74
SWIDTH 455 0
DWIDTH 4 0
BBX 5 8 -1 -1
BITMAP
005850
004F70
004F20
005F10
025E00
2F7C00
0DE800
002000
ENDCHAR
STARTCHAR K
ENCODING 75
SWIDTH 580 0
DWIDTH 5 0
BBX 5 8 0 -1
BITMAP
594860
3F8E30
0DDA00
0BFA00
09FA00
07DC00
067E00
011300
ENDCHAR
STARTCHAR L
ENCODING 76
SWIDTH 416 0
DWIDTH 4 0
BBX 4 8 0 -1
BITMAP
6980
5F70
4F70
2F60
1F60
0E93
0BFE
0245
ENDCHAR
STARTCHAR M
ENCODING 77
SWIDTH 740 0
DWIDTH 7 0
BBX 7 8 0 -1
BITMAP
59A5B810
4FF9FC00
1FFFF900
0EFFF900
0CDEE800
09BDD700
0787B400
01000100
ENDCHAR
STARTCHAR N
ENCODING 78
SWIDTH 610 0
DWIDTH 6 0
BBX 6 9 0 -2
BITMAP
485871
4FBBB0
2FFD80
1FFF60
0DFF40
0BBF30
0A7F20
063800
011100
ENDCHAR
STARTCHAR O
ENCODING 79
SWIDTH 504 0
DWIDTH 5 0
BBX 5 8 0 -1
BITMAP
069400
8FFF30
BFFF40
9E9F40
6D5F30
4E6E00
1EFA00
035200
ENDCHAR
STARTCHAR P
ENCODING 80
SWIDTH 545 0
DWIDTH 5 0
BBX 5 8 0 -1
BITMAP
589920
2FFF90
0EFF80
0CBA70
0ACB50
08D800
07B000
013000
ENDCHAR
STARTCHAR Q
ENCODING 81
SWIDTH 520 0
DWIDTH 5 0
BBX 5 9 0 -2
BITMAP
049400
7FFF30
BFFF70
AF6F60
6F3F50
3F8F40
09FF30
005A30
000100
ENDCHAR
STARTCHAR R
ENCODING 82
SWIDTH 599 0
DWIDTH 5 0
BBX 6 8 0 -1
BITMAP
48A930
3FFFF2
0DFFF2
0BB8F1
09EDD0
06DD70
05DA90
013240
ENDCHAR
STARTCHAR S
ENCODING 83
SWIDTH 504 0
DWIDTH 5 0
BBX 5 8 0 -1
BITMAP
059400
6FFF40
BFFF40
BF8C40
5FE700
289F00
4FEA00
044200
ENDCHAR
STARTCHAR T
ENCODING 84
SWIDTH 622 0
DWIDTH 6 0
BBX 6 8 0 -1
BITMAP
489861
4FFFE1
1FFFD0
09EC70
00BA00
00C900
00A900
008600
ENDCHAR
STARTCHAR U
ENCODING 85
SWIDTH 637 0
DWIDTH 6 0
BBX 6 8 0 -1
BITMAP
595572
4F7AF1
2F9BC0
0F7C90
0E7D70
0DAE50
08CC20
011100
ENDCHAR
STARTCHAR V
ENCODING 86
SWIDTH 570 0
DWIDTH 5 0
BBX 5 8 0 -1
BITMAP
692980
3F4F80
1F7F30
0FAE00
0DDB00
0BF700
08F400
039100
ENDCHAR
STARTCHAR W
ENCODING 87
SWIDTH 777 0
DWIDTH 7 0
BBX 7 7 0 0
BITMAP
264A2840
4F9F8F30
0AEFF900
05FFF400
00EFF200
00BBD000
00689000
ENDCHAR
STARTCHAR X
ENCODING 88
SWIDTH 587 0
DWIDTH 5 0
BBX 6 8 0 -1
BITMAP
484751
1DBF60
05FC00
02F900
01F600
02F700
05CB00
032300
ENDCHAR
STARTCHAR Y
ENCODING 89
SWIDTH 688 0
DWIDTH 6 0
BBX 7 8 0 -1
BITMAP
49628400
09F8F810
00CFA000
006F7000
001F6000
000D5000
000C4000
00030000
ENDCHAR
STARTCHAR Z
ENCODING 90
SWIDTH 695 0
DWIDTH 6 0
BBX 6 8 0 -1
BITMAP
499984
6FFFFB
0EFFF4
088F90
00AB00
01E500
06EF20
001200
ENDCHAR
STARTCHAR bracketleft
ENCODING 91
SWIDTH 410 0
DWIDTH 4 0
BBX 4 9 0 -1
BITMAP
4BA3
5FF6
6E11
6E00
7E00
7E00
6F00
3FE6
0120
ENDCHAR
STARTCHAR backslash
ENCODING 92
SWIDTH 292 0
DWIDTH 3 0
BBX 3 8 0 -1
BITMAP
B000
9200
6600
1B00
0B10
0720
0370
0060
ENDCHAR
STARTCHAR bracketright
ENCODING 93
SWIDTH 407 0
DWIDTH 4 0
BBX 4 9 0 -1
BITMAP
7BA0
BFF0
15F0
04F1
03F2
03F2
03F1
CFF1
1220
ENDCHAR
STARTCHAR asciicircum
ENCODING 94
SWIDTH 523 0
DWIDTH 5 0
BBX 5 4 0 6
BITMAP
058200
0EFA00
6D4F30
430610
ENDCHAR
STARTCHAR underscore
ENCODING 95
SWIDTH 452 0
DWIDTH 4 0
BBX 4 3 0 -1
BITMAP
1211
8FF9
2332
ENDCHAR
STARTCHAR grave
ENCODING 96
SWIDTH 444 0
DWIDTH 4 0
BBX 4 2 0 7
BITMAP
0C30
39D4
ENDCHAR
STARTCHAR a
ENCODING 97
SWIDTH 479 0
DWIDTH 4 0
BBX 5 8 0 -1
BITMAP
6AAA10
2FFB00
0FF900
0FF800
1FB900
2FB900
2FC800
193400
ENDCHAR
STARTCHAR b
ENCODING 98
SWIDTH 610 0
DWIDTH 6 0
BBX 6 8 0 -1
BITMAP
368960
4FFFF2
0DFFF4
0BD9F1
09EC90
08DB90
05DA90
025830
ENDCHAR
STARTCHAR c
ENCODING 99
SWIDTH 534 0
DWIDTH 5 0
BBX 5 8 0 -1
BITMAP
06A700
8FFF70
BFFF90
9F8F80
6F3530
3F5A00
0DEC00
025200
ENDCHAR
STARTCHAR d
ENCODING 100
SWIDTH 573 0
DWIDTH 5 0
BBX 5 8 0 -1
BITMAP
479710
6FFFB0
1FFFF0
0DDCE0
0AA7A0
08A860
07DD30
057A00
ENDCHAR
STARTCHAR e
ENCODING 101
SWIDTH 632 0
DWIDTH 6 0
BBX 6 8 0 -1
BITMAP
478972
5FFFE1
1FFFA0
0ED750
0BEC10
09D700
06ED20
022410
ENDCHAR
STARTCHAR f
ENCODING 102
SWIDTH 559 0
DWIDTH 5 0
BBX 5 8 0 -1
BITMAP
588840
2FFF50
0EFF20
0CC910
0BFB00
0AB300
0BA000
025000
ENDCHAR
STARTCHAR g
ENCODING 103
SWIDTH 546 0
DWIDTH 5 0
BBX 5 8 0 -1
BITMAP
078500
9FFF70
AFFFB0
8F8F90
5F2840
2F8E60
0ECE50
059810
ENDCHAR
STARTCHAR h
ENCODING 104
SWIDTH 730 0
DWIDTH 7 0
BBX 7 8 0 -1
BITMAP
4793A920
3FB2FD00
1FB4F800
0DB5F400
0BFFF100
09C7E000
08C8C000
02034000
ENDCHAR
STARTCHAR i
ENCODING 105
SWIDTH 412 0
DWIDTH 4 0
BBX 4 8 0 -1
BITMAP
6A92
2FF1
0ED0
0EA0
0CA0
0A80
0870
0010
ENDCHAR
STARTCHAR j
ENCODING 106
SWIDTH 458 0
DWIDTH 4 0
BBX 5 8 -1 -1
BITMAP
008940
008F80
005F50
005F50
024F30
1F7F20
0BFD00
001200
ENDCHAR
STARTCHAR k
ENCODING 107
SWIDTH 636 0
DWIDTH 6 0
BBX 6 8 0 -1
BITMAP
487692
3FBC70
0CCE10
09EB00
08FA00
05DE10
03B950
002210
ENDCHAR
STARTCHAR l
ENCODING 108
SWIDTH 438 0
DWIDTH 4 0
BBX 5 8 0 -1
BITMAP
49A300
3FC000
1FA000
0DA000
0BA000
0AB310
08EE00
031500
ENDCHAR
STARTCHAR m
ENCODING 109
SWIDTH 770 0
DWIDTH 7 0
BBX 7 8 0 -1
BITMAP
1593A930
5FF9FE00
2FFEFA00
0FFFF800
0DEEF500
0BBBF200
0989C000
02001000
ENDCHAR
STARTCHAR n
ENCODING 110
SWIDTH 664 0
DWIDTH 6 0
BBX 6 8 0 -1
BITMAP
698586
5FF7F5
3FFCF1
2FFFE0
0EFFB0
0DAF90
0B6F50
041810
ENDCHAR
STARTCHAR o
ENCODING 111
SWIDTH 545 0
DWIDTH 5 0
BBX 5 8 0 -1
BITMAP
079700
8FFF80
BFFFA0
8F8FA0
6F2F70
4F5F30
0DED00
014400
ENDCHAR
STARTCHAR p
ENCODING 112
SWIDTH 557 0
DWIDTH 5 0
BBX 5 8 0 -1
BITMAP
599820
2FFFB0
0FFFA0
0EAB90
0CCC60
09D910
08B000
023000
ENDCHAR
STARTCHAR q
ENCODING 113
SWIDTH 562 0
DWIDTH 5 0
BBX 5 8 0 -1
BITMAP
05A800
7FFF90
BFFFC0
AF6CC0
6F4AB0
2F9E90
08FF90
004680
ENDCHAR
STARTCHAR r
ENCODING 114
SWIDTH 616 0
DWIDTH 6 0
BBX 6 8 0 -1
BITMAP
489840
3FFFF5
0DFFF4
0BD7F1
0AEDD0
08EE60
08CB60
033440
ENDCHAR
STARTCHAR s
ENCODING 115
SWIDTH 481 0
DWIDTH 4 0
BBX 5 8 0 -1
BITMAP
069400
6FFF10
BFFF00
BF9E00
6FD300
17B900
3FD600
065100
ENDCHAR
STARTCHAR t
ENCODING 116
SWIDTH 683 0
DWIDTH 6 0
BBX 6 8 0 -1
BITMAP
48AA95
6FFFF6
1FFFF4
09BF72
007F10
006F00
004F00
003D00
ENDCHAR
STARTCHAR u
ENCODING 117
SWIDTH 708 0
DWIDTH 6 0
BBX 7 7 0 0
BITMAP
48817400
3FC4FD10
0FE3F800
0CE4F400
0BD5F300
07F8F000
03DCA000
ENDCHAR
STARTCHAR v
ENCODING 118
SWIDTH 644 0
DWIDTH 6 0
BBX 6 8 0 -1
BITMAP
385483
1F9AE1
0CBBA0
09DC70
05EE40
01FF10
00AC00
004400
ENDCHAR
STARTCHAR w
ENCODING 119
SWIDTH 704 0
DWIDTH 6 0
BBX 7 7 0 0
BITMAP
47365510
3F9DBB00
0BEFE400
06FFF100
01FFD000
00DCC000
00779000
ENDCHAR
STARTCHAR x
ENCODING 120
SWIDTH 599 0
DWIDTH 5 0
BBX 6 8 0 -1
BITMAP
495861
1CCF60
05FC00
02F900
00F700
01F800
04CC00
032300
ENDCHAR
STARTCHAR y
ENCODING 121
SWIDTH 604 0
DWIDTH 5 0
BBX 6 8 0 -1
BITMAP
493651
0BAE80
03FD00
00EB00
00BA00
009900
00A800
004200
ENDCHAR
STARTCHAR z
ENCODING 122
SWIDTH 622 0
DWIDTH 6 0
BBX 6 8 0 -1
BITMAP
49AA71
5FFFE1
0EFFA0
089E30
00B700
01E300
04FF10
012400
ENDCHAR
STARTCHAR braceleft
ENCODING 123
SWIDTH 372 0
DWIDTH 3 0
BBX 4 9 0 -1
BITMAP
0172
0AF1
4FE0
8F80
9F00
AE00
8F10
2F90
07D0
ENDCHAR
STARTCHAR bar
ENCODING 124
SWIDTH 208 0
DWIDTH 2 0
BBX 2 9 0 -1
BITMAP
11
64
75
63
64
74
63
63
53
ENDCHAR
STARTCHAR braceright
ENCODING 125
SWIDTH 338 0
DWIDTH 3 0
BBX 3 10 0 -2
BITMAP
5300
AF40
9F90
6F90
0B80
0A70
0B60
1E20
B800
1000
ENDCHAR
STARTCHAR asciitilde
ENCODING 126
SWIDTH 535 0
DWIDTH 5 0
BBX 5 2 0 5
BITMAP
698D20
3DAB20
ENDCHAR
STARTCHAR exclamdown
ENCODING 161
SWIDTH 347 0
DWIDTH 3 0
BBX 3 12 0 0
BITMAP
1000
5FB0
6FC0
5A80
0410
0F30
0F40
2F50
6F60
6F80
9FB0
5850
ENDCHAR
STARTCHAR cent
ENCODING 162
SWIDTH 552 0
DWIDTH 5 0
BBX 5 14 0 -4
BITMAP
001000
006000
007000
06C800
7FFF80
AFFF90
8F9F80
5F4430
2F5A10
0DED00
028200
005000
006000
001000
ENDCHAR
STARTCHAR sterling
ENCODING 163
SWIDTH 589 0
DWIDTH 5 0
BBX 5 8 0 -1
BITMAP
068600
7FFF90
9FFFE0
7F8FB0
7F7650
2FA320
1FEF30
034600
ENDCHAR
STARTCHAR yen
ENCODING 165
SWIDTH 692 0
DWIDTH 6 0
BBX 7 8 0 0
BITMAP
7A549710
0BDAF500
01EF9000
49DFC800
38BFA700
015F4100
002F3000
00031000
ENDCHAR
STARTCHAR brokenbar
ENCODING 166
SWIDTH 201 0
DWIDTH 2 0
BBX 2 9 0 -1
BITMAP
10
73
74
52
00
21
63
63
53
ENDCHAR
STARTCHAR section
ENCODING 167
SWIDTH 477 0
DWIDTH 4 0
BBX 4 9 0 -2
BITMAP
06A6
3FFF
4FEB
2FA5
8DC9
BC96
4DF2
5AD1
1960
ENDCHAR
STARTCHAR dieresis
ENCODING 168
SWIDTH 633 0
DWIDTH 6 0
BBX 5 3 0 7
BITMAP
141450
6F6DE0
4C49A0
ENDCHAR
STARTCHAR copyright
ENCODING 169
SWIDTH 783 0
DWIDTH 7 0
BBX 7 8 0 -1
BITMAP
02998200
1A6E9610
83EFF160
90EBF070
91C53070
649AA350
09597A00
01898100
ENDCHAR
STARTCHAR guillemotleft
ENCODING 171
SWIDTH 759 0
DWIDTH 7 0
BBX 7 6 0 0
BITMAP
03735720
0CE3EC00
7F69F300
6F47F300
09D2BC10
00531530
ENDCHAR
STARTCHAR uni00AD
ENCODING 173
SWIDTH 446 0
DWIDTH 4 0
BBX 4 2 0 2
BITMAP
5AA5
2553
ENDCHAR
STARTCHAR registered
ENCODING 174
SWIDTH 780 0
DWIDTH 7 0
BBX 7 8 0 -1
BITMAP
02865100
1CCC8610
83DFF170
90B8E090
708EA070
464BC140
09857900
00597100
ENDCHAR
STARTCHAR macron
ENCODING 175
SWIDTH 446 0
DWIDTH 4 0
BBX 4 2 0 2
BITMAP
5AA5
2553
ENDCHAR
STARTCHAR acute
ENCODING 180
SWIDTH 439 0
DWIDTH 4 0
BBX 4 2 0 7
BITMAP
03B0
4D92
ENDCHAR
STARTCHAR mu
ENCODING 181
SWIDTH 679 0
DWIDTH 6 0
BBX 7 7 0 0
BITMAP
59636300
6FA6FC10
3FB6F600
0FB6F200
0EB8F100
0ACBC000
05CD8000
ENDCHAR
STARTCHAR paragraph
ENCODING 182
SWIDTH 591 0
DWIDTH 5 0
BBX 6 8 0 -1
BITMAP
289971
BFFCB0
9FF680
6FF670
08A650
006530
006520
002210
ENDCHAR
STARTCHAR periodcentered
ENCODING 183
SWIDTH 388 0
DWIDTH 4 0
BBX 3 3 0 2
BITMAP
5BB0
5FE0
4DB0
ENDCHAR
STARTCHAR cedilla
ENCODING 184
SWIDTH 270 0
DWIDTH 2 0
BBX 3 3 0 -3
BITMAP
5500
5B10
4D00
ENDCHAR
STARTCHAR guillemotright
ENCODING 187
SWIDTH 767 0
DWIDTH 7 0
BBX 7 6 0 0
BITMAP
58446000
2EB2E900
06F56F50
09F37F70
6F82EC00
24036200
ENDCHAR
STARTCHAR Agrave
ENCODING 192
SWIDTH 494 0
DWIDTH 4 0
BBX 5 11 -1 -2
BITMAP
0B4000
29D500
047750
01FF90
00FF60
00FE50
01FB50
01ED50
01FD30
008710
000200
ENDCHAR
STARTCHAR Aacute
ENCODING 193
SWIDTH 494 0
DWIDTH 4 0
BBX 6 11 0 -2
BITMAP
0005A0
007D81
478500
1FF900
0FF600
0FE500
1FB500
1ED500
1FD300
087100
002000
ENDCHAR
STARTCHAR Acircumflex
ENCODING 194
SWIDTH 494 0
DWIDTH 4 0
BBX 5 13 0 -2
BITMAP
045000
1EF600
7A6D00
610610
477500
1FF900
0FF600
0FE500
1FB500
1ED500
1FD300
087100
002000
ENDCHAR
STARTCHAR Atilde
ENCODING 195
SWIDTH 494 0
DWIDTH 4 0
BBX 5 12 0 -2
BITMAP
001200
ACDE20
295700
477500
1FF900
0FF600
0FE500
1FB500
1ED500
1FD300
087100
002000
ENDCHAR
STARTCHAR Adieresis
ENCODING 196
SWIDTH 494 0
DWIDTH 4 0
BBX 5 12 0 -2
BITMAP
432520
EC6F60
A94B50
477500
1FF900
0FF600
0FE500
1FB500
1ED500
1FD300
087100
002000
ENDCHAR
STARTCHAR Aring
ENCODING 197
SWIDTH 494 0
DWIDTH 4 0
BBX 4 12 0 -2
BITMAP
0020
0BB5
0A84
49B5
1FF9
0FF6
0FE5
1FB5
1ED5
1FD3
0871
0020
ENDCHAR
STARTCHAR AE
ENCODING 198
SWIDTH 733 0
DWIDTH 7 0
BBX 7 9 0 -2
BITMAP
47899710
1FFFFE00
0FFFF900
0FED5300
1FBFE000
1EDD5000
1EDDE100
08754000
00211000
ENDCHAR
STARTCHAR Ccedilla
ENCODING 199
SWIDTH 504 0
DWIDTH 5 0
BBX 5 11 0 -4
BITMAP
07A500
7FFF30
BFFF50
9F8F40
7F1310
4F4A00
1FEA00
037100
004700
004B20
004C20
ENDCHAR
STARTCHAR Egrave
ENCODING 200
SWIDTH 570 0
DWIDTH 5 0
BBX 5 10 0 -1
BITMAP
690000
7BA000
58A850
4FFF70
2FFF30
1F8600
0EF700
0D9300
09F900
014100
ENDCHAR
STARTCHAR Eacute
ENCODING 201
SWIDTH 570 0
DWIDTH 5 0
BBX 6 10 0 -1
BITMAP
0002C1
002DA4
589850
4FFF70
2FFF30
1F8600
0EF700
0D9300
09F900
014100
ENDCHAR
STARTCHAR Ecircumflex
ENCODING 202
SWIDTH 570 0
DWIDTH 5 0
BBX 5 12 0 -1
BITMAP
025200
0AFB00
2E4E40
330330
589850
4FFF70
2FFF30
1F8600
0EF700
0D9300
09F900
014100
ENDCHAR
STARTCHAR Edieresis
ENCODING 203
SWIDTH 570 0
DWIDTH 5 0
BBX 5 11 0 -1
BITMAP
241440
9F3FC0
6C2B80
589850
4FFF70
2FFF30
1F8600
0EF700
0D9300
09F900
014100
ENDCHAR
STARTCHAR Igrave
ENCODING 204
SWIDTH 401 0
DWIDTH 4 0
BBX 5 10 -1 -1
BITMAP
3B1000
5BC100
07A920
03FE00
00FD00
00FB00
00DA00
00C900
008800
001200
ENDCHAR
STARTCHAR Iacute
ENCODING 205
SWIDTH 401 0
DWIDTH 4 0
BBX 5 10 0 -1
BITMAP
001B30
01CB50
7AA200
3FE000
0FD000
0FB000
0DA000
0C9000
088000
012000
ENDCHAR
STARTCHAR Icircumflex
ENCODING 206
SWIDTH 401 0
DWIDTH 4 0
BBX 5 12 -1 -1
BITMAP
015300
07FD00
0D5C70
150250
07A920
03FE00
00FD00
00FB00
00DA00
00C900
008800
001200
ENDCHAR
STARTCHAR Idieresis
ENCODING 207
SWIDTH 401 0
DWIDTH 4 0
BBX 5 11 -1 -1
BITMAP
141450
6F6DE0
4C49A0
07A920
03FE00
00FD00
00FB00
00DA00
00C900
008800
001200
ENDCHAR
STARTCHAR Eth
ENCODING 208
SWIDTH 530 0
DWIDTH 5 0
BBX 5 9 0 -2
BITMAP
168910
2FFFB0
0CFFE0
0BDAC0
5CD890
07B950
06DF20
043400
001000
ENDCHAR
STARTCHAR Ntilde
ENCODING 209
SWIDTH 610 0
DWIDTH 6 0
BBX 6 12 0 -2
BITMAP
010300
4EBF70
087620
485871
4FBBB0
2FFD80
1FFF60
0DFF40
0BBF30
0A7F20
063800
011100
ENDCHAR
STARTCHAR Ograve
ENCODING 210
SWIDTH 504 0
DWIDTH 5 0
BBX 6 10 -1 -1
BITMAP
0B4000
29D500
006940
08FFF3
0BFFF4
09E9F4
06D5F3
04E6E0
01EFA0
003520
ENDCHAR
STARTCHAR Oacute
ENCODING 211
SWIDTH 504 0
DWIDTH 5 0
BBX 6 10 0 -1
BITMAP
0006A0
007D81
069400
8FFF30
BFFF40
9E9F40
6D5F30
4E6E00
1EFA00
035200
ENDCHAR
STARTCHAR Ocircumflex
ENCODING 212
SWIDTH 504 0
DWIDTH 5 0
BBX 5 12 0 -1
BITMAP
045000
1FF500
8A7D00
600610
069400
8FFF30
BFFF40
9E9F40
6D5F30
4E6E00
1EFA00
035200
ENDCHAR
STARTCHAR Otilde
ENCODING 213
SWIDTH 504 0
DWIDTH 5 0
BBX 5 11 0 -1
BITMAP
102100
CBED00
495600
069400
8FFF30
BFFF40
9E9F40
6D5F30
4E6E00
1EFA00
035200
ENDCHAR
STARTCHAR Odieresis
ENCODING 214
SWIDTH 504 0
DWIDTH 5 0
BBX 5 11 0 -1
BITMAP
432520
EC7F60
B95B40
069400
8FFF30
BFFF40
9E9F40
6D5F30
4E6E00
1EFA00
035200
ENDCHAR
STARTCHAR multiply
ENCODING 215
SWIDTH 359 0
DWIDTH 3 0
BBX 4 4 0 1
BITMAP
8AC1
5FB0
9DE1
1120
ENDCHAR
STARTCHAR Oslash
ENCODING 216
SWIDTH 658 0
DWIDTH 6 0
BBX 7 8 -1 -1
BITMAP
00497100
04FFF950
06FFFC00
05F7FB00
02F8E900
00F5F600
05CEF200
11155000
ENDCHAR
STARTCHAR Ugrave
ENCODING 217
SWIDTH 637 0
DWIDTH 6 0
BBX 6 10 0 -1
BITMAP
2C2000
4AD200
595672
4F7AF1
2F9BC0
0F7C90
0E7D70
0DAE50
08CC20
011100
ENDCHAR
STARTCHAR Uacute
ENCODING 218
SWIDTH 637 0
DWIDTH 6 0
BBX 6 10 0 -1
BITMAP
000095
000BB6
595672
4F7AF1
2F9BC0
0F7C90
0E7D70
0DAE50
08CC20
011100
ENDCHAR
STARTCHAR Ucircumflex
ENCODING 219
SWIDTH 637 0
DWIDTH 6 0
BBX 6 12 0 -1
BITMAP
005400
06FE10
0C6B90
160160
595572
4F7AF1
2F9BC0
0F7C90
0E7D70
0DAE50
08CC20
011100
ENDCHAR
STARTCHAR Udieresis
ENCODING 220
SWIDTH 637 0
DWIDTH 6 0
BBX 6 11 0 -1
BITMAP
142350
4F8BF1
3C68B1
595572
4F7AF1
2F9BC0
0F7C90
0E7D70
0DAE50
08CC20
011100
ENDCHAR
STARTCHAR Yacute
ENCODING 221
SWIDTH 688 0
DWIDTH 6 0
BBX 7 10 0 -1
BITMAP
00006900
0007C810
49628400
09F8F810
00CFA000
006F7000
001F6000
000D5000
000C4000
00030000
ENDCHAR
STARTCHAR Thorn
ENCODING 222
SWIDTH 521 0
DWIDTH 5 0
BBX 5 10 0 -1
BITMAP
122000
CF7000
AFB810
8FFF50
7FFF60
5F7D40
2FAD10
0EB700
0E6000
064000
ENDCHAR
STARTCHAR germandbls
ENCODING 223
SWIDTH 546 0
DWIDTH 5 0
BBX 5 8 0 -1
BITMAP
178710
8FFF90
AFFFA0
9F7F50
7F8E00
4F7E00
2F7E00
155600
ENDCHAR
STARTCHAR agrave
ENCODING 224
SWIDTH 479 0
DWIDTH 4 0
BBX 6 10 -1 -1
BITMAP
0A5000
18D700
06ABA1
02FFB0
00FF90
00FF80
01FB90
02FB90
02FC80
019340
ENDCHAR
STARTCHAR aacute
ENCODING 225
SWIDTH 479 0
DWIDTH 4 0
BBX 6 10 0 -1
BITMAP
0004B0
005D92
6ABA10
2FFB00
0FF900
0FF800
1FB900
2FB900
2FC800
193400
ENDCHAR
STARTCHAR acircumflex
ENCODING 226
SWIDTH 479 0
DWIDTH 4 0
BBX 5 12 0 -1
BITMAP
035100
0EF700
6B5E10
510610
6AAA10
2FFB00
0FF900
0FF800
1FB900
2FB900
2FC800
193400
ENDCHAR
STARTCHAR atilde
ENCODING 227
SWIDTH 479 0
DWIDTH 4 0
BBX 5 11 0 -1
BITMAP
101100
BBEE10
395600
6AAA10
2FFB00
0FF900
0FF800
1FB900
2FB900
2FC800
193400
ENDCHAR
STARTCHAR adieresis
ENCODING 228
SWIDTH 479 0
DWIDTH 4 0
BBX 5 11 0 -1
BITMAP
331530
DE5F80
9B3B60
6AAA10
2FFB00
0FF900
0FF800
1FB900
2FB900
2FC800
193400
ENDCHAR
STARTCHAR aring
ENCODING 229
SWIDTH 479 0
DWIDTH 4 0
BBX 5 12 0 -1
BITMAP
002000
0AB600
097500
015000
6AAA10
2FFB00
0FF900
0FF800
1FB900
2FB900
2FC800
193400
ENDCHAR
STARTCHAR ae
ENCODING 230
SWIDTH 755 0
DWIDTH 7 0
BBX 7 8 0 -1
BITMAP
6AAAA720
1FFFFF10
0EFFFC00
0EFF6600
0FBFC200
1FBF7100
1FCFD300
0A354200
ENDCHAR
STARTCHAR ccedilla
ENCODING 231
SWIDTH 534 0
DWIDTH 5 0
BBX 5 11 0 -4
BITMAP
06A700
8FFF70
BFFF90
9F8F80
6F3530
3F5A00
0DEC00
025200
007300
007B00
006C00
ENDCHAR
STARTCHAR egrave
ENCODING 232
SWIDTH 632 0
DWIDTH 6 0
BBX 6 10 0 -1
BITMAP
3B1000
5AC100
479972
5FFFE1
1FFFA0
0ED750
0BEC10
09D700
06ED20
022410
ENDCHAR
STARTCHAR eacute
ENCODING 233
SWIDTH 632 0
DWIDTH 6 0
BBX 6 10 0 -1
BITMAP
0001A4
000CB6
478972
5FFFE1
1FFFA0
0ED750
0BEC10
09D700
06ED20
022410
ENDCHAR
STARTCHAR ecircumflex
ENCODING 234
SWIDTH 632 0
DWIDTH 6 0
BBX 6 12 0 -1
BITMAP
015300
07FE10
0D5C70
150250
478972
5FFFE1
1FFFA0
0ED750
0BEC10
09D700
06ED20
022410
ENDCHAR
STARTCHAR edieresis
ENCODING 235
SWIDTH 632 0
DWIDTH 6 0
BBX 6 11 0 -1
BITMAP
141450
5F6CF0
4C49B0
478972
5FFFE1
1FFFA0
0ED750
0BEC10
09D700
06ED20
022410
ENDCHAR
STARTCHAR igrave
ENCODING 236
SWIDTH 411 0
DWIDTH 4 0
BBX 5 10 -1 -1
BITMAP
3B1000
5AC100
06A920
02FF10
00ED00
00EA00
00CA00
00A800
008700
000200
ENDCHAR
STARTCHAR iacute
ENCODING 237
SWIDTH 411 0
DWIDTH 4 0
BBX 5 10 0 -1
BITMAP
001A40
00CB60
6AA200
2FF100
0ED000
0EA000
0CA000
0A8000
087000
002000
ENDCHAR
STARTCHAR icircumflex
ENCODING 238
SWIDTH 411 0
DWIDTH 4 0
BBX 4 12 0 -1
BITMAP
0550
3FF3
A89B
6006
6A92
2FF1
0ED0
0EA0
0CA0
0A80
0870
0020
ENDCHAR
STARTCHAR idieresis
ENCODING 239
SWIDTH 411 0
DWIDTH 4 0
BBX 5 11 -1 -1
BITMAP
141350
5F6CF0
4C59B0
06A920
02FF10
00ED00
00EA00
00CA00
00A800
008700
000200
ENDCHAR
STARTCHAR eth
ENCODING 240
SWIDTH 530 0
DWIDTH 5 0
BBX 5 9 0 -2
BITMAP
168910
2FFFB0
0CFFE0
0BDAC0
5CD890
07B950
06DF20
043400
001000
ENDCHAR
STARTCHAR ntilde
ENCODING 241
SWIDTH 664 0
DWIDTH 6 0
BBX 6 11 0 -1
BITMAP
010200
1EAEB0
059550
698586
5FF7F5
3FFCF1
2FFFE0
0EFFB0
0DAF90
0B6F50
041810
ENDCHAR
STARTCHAR ograve
ENCODING 242
SWIDTH 545 0
DWIDTH 5 0
BBX 6 10 -1 -1
BITMAP
096000
18C800
007A70
08FFF8
0BFFFA
08F8FA
06F2F7
04F5F3
00DED0
001440
ENDCHAR
STARTCHAR oacute
ENCODING 243
SWIDTH 545 0
DWIDTH 5 0
BBX 6 10 0 -1
BITMAP
0003B0
004D92
07A700
8FFF80
BFFFA0
8F8FA0
6F2F70
4F5F30
0DED00
014400
ENDCHAR
STARTCHAR ocircumflex
ENCODING 244
SWIDTH 545 0
DWIDTH 5 0
BBX 5 12 0 -1
BITMAP
035100
0DF800
5C5E20
520520
079700
8FFF80
BFFFA0
8F8FA0
6F2F70
4F5F30
0DED00
014400
ENDCHAR
STARTCHAR otilde
ENCODING 245
SWIDTH 545 0
DWIDTH 5 0
BBX 5 11 0 -1
BITMAP
001200
9CDE20
295700
079700
8FFF80
BFFFA0
8F8FA0
6F2F70
4F5F30
0DED00
014400
ENDCHAR
STARTCHAR odieresis
ENCODING 246
SWIDTH 545 0
DWIDTH 5 0
BBX 5 11 0 -1
BITMAP
341530
BF3F90
8C2B60
079700
8FFF80
BFFFA0
8F8FA0
6F2F70
4F5F30
0DED00
014400
ENDCHAR
STARTCHAR oslash
ENCODING 248
SWIDTH 676 0
DWIDTH 6 0
BBX 6 8 0 -1
BITMAP
069702
6FFF92
8FFFA0
7F9F90
4F7F70
2F5F30
5CED00
004400
ENDCHAR
STARTCHAR ugrave
ENCODING 249
SWIDTH 708 0
DWIDTH 6 0
BBX 7 9 0 0
BITMAP
0B400000
29D50000
48827400
3FC4FD10
0FE3F800
0CE4F400
0BD5F300
07F8F000
03DCA000
ENDCHAR
STARTCHAR uacute
ENCODING 250
SWIDTH 708 0
DWIDTH 6 0
BBX 7 9 0 0
BITMAP
00005A00
0007D810
48827400
3FC4FD10
0FE3F800
0CE4F400
0BD5F300
07F8F000
03DCA000
ENDCHAR
STARTCHAR ucircumflex
ENCODING 251
SWIDTH 708 0
DWIDTH 6 0
BBX 7 11 0 0
BITMAP
00450000
01EF6000
07A6D000
06106100
48817400
3FC4FD10
0FE3F800
0CE4F400
0BD5F300
07F8F000
03DCA000
ENDCHAR
STARTCHAR udieresis
ENCODING 252
SWIDTH 708 0
DWIDTH 6 0
BBX 7 10 0 0
BITMAP
04325200
0EC6F600
0A94B500
48817400
3FC4FD10
0FE3F800
0CE4F400
0BD5F300
07F8F000
03DCA000
ENDCHAR
STARTCHAR yacute
ENCODING 253
SWIDTH 604 0
DWIDTH 5 0
BBX 6 10 0 -1
BITMAP
0001B3
001CB5
493751
0BAE80
03FD00
00EB00
00BA00
009900
00A800
004200
ENDCHAR
STARTCHAR thorn
ENCODING 254
SWIDTH 498 0
DWIDTH 4 0
BBX 5 10 0 -1
BITMAP
122000
CF5000
AFB700
8FFF20
7FFF30
5F6F20
2F9E00
0EB600
0E6000
064000
ENDCHAR
STARTCHAR ydieresis
ENCODING 255
SWIDTH 604 0
DWIDTH 5 0
BBX 6 11 0 -1
BITMAP
042351
2F9AF3
2C77B2
493651
0BAE80
03FD00
00EB00
00BA00
009900
00A800
004200
ENDCHAR
STARTCHAR Amacron
ENCODING 256
SWIDTH 494 0
DWIDTH 4 0
BBX 4 11 0 -2
BITMAP
3AA7
1554
4775
1FF9
0FF6
0FE5
1FB5
1ED5
1FD3
0871
0020
ENDCHAR
STARTCHAR amacron
ENCODING 257
SWIDTH 479 0
DWIDTH 4 0
BBX 5 10 0 -1
BITMAP
2AA800
155400
6AAA10
2FFB00
0FF900
0FF800
1FB900
2FB900
2FC800
193400
ENDCHAR
STARTCHAR Abreve
ENCODING 258
SWIDTH 494 0
DWIDTH 4 0
BBX 5 12 0 -2
BITMAP
0D1830
0AEE10
003400
477500
1FF900
0FF600
0FE500
1FB500
1ED500
1FD300
087100
002000
ENDCHAR
STARTCHAR abreve
ENCODING 259
SWIDTH 479 0
DWIDTH 4 0
BBX 5 11 0 -1
BITMAP
0D1830
0AEE10
003400
6AAA10
2FFB00
0FF900
0FF800
1FB900
2FB900
2FC800
193400
ENDCHAR
STARTCHAR Aogonek
ENCODING 260
SWIDTH 494 0
DWIDTH 4 0
BBX 5 11 0 -4
BITMAP
477500
1FF900
0FF600
0FE500
1FB500
1ED500
1FD300
08C100
01E000
01F710
006B20
ENDCHAR
STARTCHAR aogonek
ENCODING 261
SWIDTH 479 0
DWIDTH 4 0
BBX 5 11 0 -4
BITMAP
6AAA10
2FFB00
0FF900
0FF800
1FB900
2FB900
2FC800
197600
008600
005F90
000220
ENDCHAR
STARTCHAR Cacute
ENCODING 262
SWIDTH 504 0
DWIDTH 5 0
BBX 5 10 0 -1
BITMAP
001A40
00CB60
07B500
7FFF30
BFFF50
9F8F40
7F1310
4F4A00
1FEA00
037100
ENDCHAR
STARTCHAR cacute
ENCODING 263
SWIDTH 534 0
DWIDTH 5 0
BBX 5 10 0 -1
BITMAP
000870
00AC70
06B700
8FFF70
BFFF90
9F8F80
6F3530
3F5A00
0DEC00
025200
ENDCHAR
STARTCHAR Ccircumflex
ENCODING 264
SWIDTH 504 0
DWIDTH 5 0
BBX 5 12 0 -1
BITMAP
035200
0CFA00
3D4E20
420420
07A500
7FFF30
BFFF50
9F8F40
7F1310
4F4A00
1FEA00
037100
ENDCHAR
STARTCHAR ccircumflex
ENCODING 265
SWIDTH 534 0
DWIDTH 5 0
BBX 5 12 0 -1
BITMAP
015300
08FD00
1D4D60
250250
06A700
8FFF70
BFFF90
9F8F80
6F3530
3F5A00
0DEC00
025200
ENDCHAR
STARTCHAR Cdotaccent
ENCODING 266
SWIDTH 504 0
DWIDTH 5 0
BBX 5 11 0 -1
BITMAP
08C600
0BF800
09C700
07A500
7FFF30
BFFF50
9F8F40
7F1310
4F4A00
1FEA00
037100
ENDCHAR
STARTCHAR cdotaccent
ENCODING 267
SWIDTH 534 0
DWIDTH 5 0
BBX 5 11 0 -1
BITMAP
06C900
08FB00
06D900
06A700
8FFF70
BFFF90
9F8F80
6F3530
3F5A00
0DEC00
025200
ENDCHAR
STARTCHAR Ccaron
ENCODING 268
SWIDTH 504 0
DWIDTH 5 0
BBX 5 12 0 -1
BITMAP
330500
7C4F20
1EEA00
069200
07A500
7FFF30
BFFF50
9F8F40
7F1310
4F4A00
1FEA00
037100
ENDCHAR
STARTCHAR ccaron
ENCODING 269
SWIDTH 534 0
DWIDTH 5 0
BBX 5 12 0 -1
BITMAP
150320
2F3D70
0AEE10
039500
06A700
8FFF70
BFFF90
9F8F80
6F3530
3F5A00
0DEC00
025200
ENDCHAR
STARTCHAR Dcaron
ENCODING 270
SWIDTH 522 0
DWIDTH 5 0
BBX 5 13 0 -2
BITMAP
150230
1E4C90
09EE10
029600
368700
7FFF60
3FFF80
1F9E60
0F5B30
0D6E00
0AED00
037100
001000
ENDCHAR
STARTCHAR dcaron
ENCODING 271
SWIDTH 522 0
DWIDTH 5 0
BBX 5 13 0 -2
BITMAP
150230
1E4C90
09EE10
029600
368700
7FFF60
3FFF80
1F9E60
0F5B30
0D6E00
0AED00
037100
001000
ENDCHAR
STARTCHAR Eth.dup2
ENCODING 272
SWIDTH 530 0
DWIDTH 5 0
BBX 5 9 0 -2
BITMAP
168910
2FFFB0
0CFFE0
0BDAC0
5CD890
07B950
06DF20
043400
001000
ENDCHAR
STARTCHAR Emacron
ENCODING 274
SWIDTH 570 0
DWIDTH 5 0
BBX 5 10 0 -1
BITMAP
0AAA00
045500
589850
4FFF70
2FFF30
1F8600
0EF700
0D9300
09F900
014100
ENDCHAR
STARTCHAR emacron
ENCODING 275
SWIDTH 632 0
DWIDTH 6 0
BBX 6 10 0 -1
BITMAP
08AA30
035510
478972
5FFFE1
1FFFA0
0ED750
0BEC10
09D700
06ED20
022410
ENDCHAR
STARTCHAR Ebreve
ENCODING 276
SWIDTH 570 0
DWIDTH 5 0
BBX 5 11 0 -1
BITMAP
095560
06EE50
001600
589850
4FFF70
2FFF30
1F8600
0EF700
0D9300
09F900
014100
ENDCHAR
STARTCHAR ebreve
ENCODING 277
SWIDTH 632 0
DWIDTH 6 0
BBX 6 11 0 -1
BITMAP
03B1A1
01DEC0
001330
478972
5FFFE1
1FFFA0
0ED750
0BEC10
09D700
06ED20
022410
ENDCHAR
STARTCHAR Edotaccent
ENCODING 278
SWIDTH 570 0
DWIDTH 5 0
BBX 5 11 0 -1
BITMAP
07C800
08FB00
07D800
589850
4FFF70
2FFF30
1F8600
0EF700
0D9300
09F900
014100
ENDCHAR
STARTCHAR edotaccent
ENCODING 279
SWIDTH 632 0
DWIDTH 6 0
BBX 6 11 0 -1
BITMAP
05BB00
05FE00
04DB00
478972
5FFFE1
1FFFA0
0ED750
0BEC10
09D700
06ED20
022410
ENDCHAR
STARTCHAR Eogonek
ENCODING 280
SWIDTH 513 0
DWIDTH 5 0
BBX 5 10 0 -3
BITMAP
589850
4FFF70
2FFF30
1F8600
0EF700
0D9300
0BE900
01A400
00B720
004D70
ENDCHAR
STARTCHAR eogonek
ENCODING 281
SWIDTH 632 0
DWIDTH 6 0
BBX 6 10 0 -3
BITMAP
478972
5FFFE1
1FFFA0
0ED750
0BEC10
09D700
06ED20
025B00
003C30
000AE0
ENDCHAR
STARTCHAR Ecaron
ENCODING 282
SWIDTH 570 0
DWIDTH 5 0
BBX 5 12 0 -1
BITMAP
150230
1E4C90
09EE10
029600
589850
4FFF70
2FFF30
1F8600
0EF700
0D9300
09F900
014100
ENDCHAR
STARTCHAR ecaron
ENCODING 283
SWIDTH 632 0
DWIDTH 6 0
BBX 6 12 0 -1
BITMAP
051050
09B5E1
02FE80
007910
478972
5FFFE1
1FFFA0
0ED750
0BEC10
09D700
06ED20
022410
ENDCHAR
STARTCHAR Gcircumflex
ENCODING 284
SWIDTH 499 0
DWIDTH 4 0
BBX 5 12 0 -1
BITMAP
045000
1EF600
7A6D00
610610
178200
9FFE20
AFFF40
8E9F20
6C5A10
4E7F10
1FDE00
056400
ENDCHAR
STARTCHAR gcircumflex
ENCODING 285
SWIDTH 546 0
DWIDTH 5 0
BBX 5 12 0 -1
BITMAP
035100
0DF900
4C5E20
520520
078500
9FFF70
AFFFB0
8F8F90
5F2840
2F8E60
0ECE50
059810
ENDCHAR
STARTCHAR Gbreve
ENCODING 286
SWIDTH 499 0
DWIDTH 4 0
BBX 5 11 0 -1
BITMAP
3B1A10
1DEC00
013300
178200
9FFE20
AFFF40
8E9F20
6C5A10
4E7F10
1FDE00
056400
ENDCHAR
STARTCHAR gbreve
ENCODING 287
SWIDTH 546 0
DWIDTH 5 0
BBX 5 11 0 -1
BITMAP
1D1930
0BEE10
003400
078500
9FFF70
AFFFB0
8F8F90
5F2840
2F8E60
0ECE50
059810
ENDCHAR
STARTCHAR Gdotaccent
ENCODING 288
SWIDTH 499 0
DWIDTH 4 0
BBX 5 11 0 -1
BITMAP
0AC400
0EF500
0CC400
178200
9FFE20
AFFF40
8E9F20
6C5A10
4E7F10
1FDE00
056400
ENDCHAR
STARTCHAR gdotaccent
ENCODING 289
SWIDTH 546 0
DWIDTH 5 0
BBX 5 11 0 -1
BITMAP
09C600
0BF800
09C600
078500
9FFF70
AFFFB0
8F8F90
5F2840
2F8E60
0ECE50
059810
ENDCHAR
STARTCHAR Gcommaaccent
ENCODING 290
SWIDTH 499 0
DWIDTH 4 0
BBX 5 13 0 -6
BITMAP
178200
9FFE20
AFFF40
8E9F20
6C5A10
4E7F10
1FDE00
056400
000000
07F900
08F900
017800
006500
ENDCHAR
STARTCHAR Hcircumflex
ENCODING 292
SWIDTH 726 0
DWIDTH 7 0
BBX 7 13 0 -2
BITMAP
00450000
01FF5000
08A7D000
06006100
36839710
4FB3FC00
1FA5F700
0EA5F400
0BFFF100
09B8E000
08B9B000
02134000
00020000
ENDCHAR
STARTCHAR hcircumflex
ENCODING 293
SWIDTH 730 0
DWIDTH 7 0
BBX 7 12 0 -1
BITMAP
00450000
01EF6000
07A6D000
06106100
4793A920
3FB2FD00
1FB4F800
0DB5F400
0BFFF100
09C7E000
08C8C000
02034000
ENDCHAR
STARTCHAR hbar
ENCODING 295
SWIDTH 704 0
DWIDTH 6 0
BBX 6 8 0 -1
BITMAP
4785A8
3FCAF9
1FFFF4
0DA9F1
0BFFD0
09C7E0
08C8C0
020340
ENDCHAR
STARTCHAR Itilde
ENCODING 296
SWIDTH 401 0
DWIDTH 4 0
BBX 5 11 -1 -1
BITMAP
010300
4EBF70
087620
07A920
03FE00
00FD00
00FB00
00DA00
00C900
008800
001200
ENDCHAR
STARTCHAR itilde
ENCODING 297
SWIDTH 411 0
DWIDTH 4 0
BBX 5 11 -1 -1
BITMAP
010300
3EAF70
078630
06A920
02FF10
00ED00
00EA00
00CA00
00A800
008700
000200
ENDCHAR
STARTCHAR Imacron
ENCODING 298
SWIDTH 401 0
DWIDTH 4 0
BBX 4 10 0 -1
BITMAP
8AA2
3551
7A92
3FE0
0FD0
0FB0
0DA0
0C90
0880
0120
ENDCHAR
STARTCHAR imacron
ENCODING 299
SWIDTH 411 0
DWIDTH 4 0
BBX 4 10 0 -1
BITMAP
8AA3
3551
6A92
2FF1
0ED0
0EA0
0CA0
0A80
0870
0020
ENDCHAR
STARTCHAR Ibreve
ENCODING 300
SWIDTH 401 0
DWIDTH 4 0
BBX 4 11 0 -1
BITMAP
9656
6EE6
0151
7A92
3FE0
0FD0
0FB0
0DA0
0C90
0880
0120
ENDCHAR
STARTCHAR ibreve
ENCODING 301
SWIDTH 411 0
DWIDTH 4 0
BBX 4 11 0 -1
BITMAP
9556
6EE6
0151
6A92
2FF1
0ED0
0EA0
0CA0
0A80
0870
0020
ENDCHAR
STARTCHAR Iogonek
ENCODING 302
SWIDTH 401 0
DWIDTH 4 0
BBX 4 11 0 -4
BITMAP
7A92
3FE0
0FD0
0FB0
0DA0
0C90
0A80
0B30
0D00
0DB3
0272
ENDCHAR
STARTCHAR iogonek
ENCODING 303
SWIDTH 412 0
DWIDTH 4 0
BBX 4 11 0 -4
BITMAP
6A92
2FF1
0ED0
0EA0
0CA0
0A80
0970
0C30
0E10
0AE5
0141
ENDCHAR
STARTCHAR Idotaccent
ENCODING 304
SWIDTH 401 0
DWIDTH 4 0
BBX 4 11 0 -1
BITMAP
5BA0
6FD0
5DB0
7A92
3FE0
0FD0
0FB0
0DA0
0C90
0880
0120
ENDCHAR
STARTCHAR dotlessi
ENCODING 305
SWIDTH 411 0
DWIDTH 4 0
BBX 4 8 0 -1
BITMAP
6A92
2FF1
0ED0
0EA0
0CA0
0A80
0870
0020
ENDCHAR
STARTCHAR IJ
ENCODING 306
SWIDTH 908 0
DWIDTH 8 0
BBX 8 8 0 -1
BITMAP
7AA30485
3FF104F7
0FF003F3
0FD004F2
0DC024E0
0BB1F7D0
08A0CE90
01200200
ENDCHAR
STARTCHAR ij
ENCODING 307
SWIDTH 901 0
DWIDTH 8 0
BBX 8 8 0 -1
BITMAP
6A930884
2FF208F8
0EE006F4
0EC006F4
0CC025F2
09A1F7F1
0890BFC0
00200220
ENDCHAR
STARTCHAR Jcircumflex
ENCODING 308
SWIDTH 455 0
DWIDTH 4 0
BBX 6 12 -1 -1
BITMAP
002520
00BFB0
02D4E3
033043
005850
004F70
004F20
005F10
025E00
2F7C00
0DE800
002000
ENDCHAR
STARTCHAR jcircumflex
ENCODING 309
SWIDTH 458 0
DWIDTH 4 0
BBX 6 12 -1 -1
BITMAP
002520
00BFB0
02E4E4
033043
008940
008F80
005F50
005F40
024F30
1F7F20
0BFD00
001200
ENDCHAR
STARTCHAR Kcommaaccent
ENCODING 310
SWIDTH 580 0
DWIDTH 5 0
BBX 5 12 0 -5
BITMAP
594860
3F8E30
0DDA00
0BFA00
09FA00
07DC00
067E00
012300
02FE00
03FE00
002D00
002900
ENDCHAR
STARTCHAR kcommaaccent
ENCODING 311
SWIDTH 636 0
DWIDTH 6 0
BBX 6 12 0 -5
BITMAP
487692
3FBC70
0CCE10
09EB00
08FA00
05DE10
03B950
002210
00DF30
00EF40
002C30
000B00
ENDCHAR
STARTCHAR kgreenlandic
ENCODING 312
SWIDTH 636 0
DWIDTH 6 0
BBX 6 8 0 -1
BITMAP
487692
3FBC70
0CCE10
09EB00
08FA00
05DE10
03B950
002210
ENDCHAR
STARTCHAR Lacute
ENCODING 313
SWIDTH 416 0
DWIDTH 4 0
BBX 5 10 0 -1
BITMAP
001A40
00CB60
698000
5F7000
4F7000
2F6000
1F6000
0E9300
0BFE00
024500
ENDCHAR
STARTCHAR lacute
ENCODING 314
SWIDTH 438 0
DWIDTH 4 0
BBX 5 10 0 -1
BITMAP
000960
00AC70
49A300
3FC000
1FA000
0DA000
0BA000
0AB310
08EE00
031500
ENDCHAR
STARTCHAR Lcommaaccent
ENCODING 315
SWIDTH 416 0
DWIDTH 4 0
BBX 4 12 0 -5
BITMAP
6980
5F70
4F70
2F60
1F60
0E93
0BFE
0245
0EF2
0FF3
02C2
00B0
ENDCHAR
STARTCHAR lcommaaccent
ENCODING 316
SWIDTH 438 0
DWIDTH 4 0
BBX 5 12 0 -5
BITMAP
49A300
3FC000
1FA000
0DA000
0BA000
0AB310
08EE00
031500
0CF500
0CF500
01B400
00A100
ENDCHAR
STARTCHAR Lcaron
ENCODING 317
SWIDTH 714 0
DWIDTH 6 0
BBX 7 9 0 -1
BITMAP
00001000
6984FF10
5F74FF10
4F729E10
2F600D00
1F600400
0E930000
0BFE0000
02450000
ENDCHAR
STARTCHAR lcaron
ENCODING 318
SWIDTH 782 0
DWIDTH 7 0
BBX 7 8 0 -1
BITMAP
49A39FA0
3FC0AFA0
1FA06AA0
0DA00680
0BA00220
0AB31000
08EE0000
03150000
ENDCHAR
STARTCHAR Ldotaccent
ENCODING 319
SWIDTH 567 0
DWIDTH 5 0
BBX 6 8 0 -1
BITMAP
698000
5F7342
4F7CF7
2F6BF8
1F6452
0E9300
0BFE00
024500
ENDCHAR
STARTCHAR ldot
ENCODING 320
SWIDTH 660 0
DWIDTH 6 0
BBX 7 8 0 -1
BITMAP
49A30000
3FC00000
1FA2BC20
0DA1FF30
0BA0EC20
0AB31000
08EE0000
03150000
ENDCHAR
STARTCHAR Lslash
ENCODING 321
SWIDTH 428 0
DWIDTH 4 0
BBX 5 8 0 -1
BITMAP
598000
3F7000
2FBB00
9FFE10
9F9000
0C9300
0AFE00
014500
ENDCHAR
STARTCHAR lslash
ENCODING 322
SWIDTH 457 0
DWIDTH 4 0
BBX 5 8 0 -1
BITMAP
399400
2FD000
0FEC40
7FFE50
8FC100
08C310
07EF10
031500
ENDCHAR
STARTCHAR Nacute
ENCODING 323
SWIDTH 610 0
DWIDTH 6 0
BBX 6 11 0 -2
BITMAP
0001B4
000CB5
485871
4FBBB0
2FFD80
1FFF60
0DFF40
0BBF30
0A7F20
063800
011100
ENDCHAR
STARTCHAR nacute
ENCODING 324
SWIDTH 664 0
DWIDTH 6 0
BBX 6 10 0 -1
BITMAP
000078
0009C7
698586
5FF7F5
3FFCF1
2FFFE0
0EFFB0
0DAF90
0B6F50
041810
ENDCHAR
STARTCHAR Ncommaaccent
ENCODING 325
SWIDTH 610 0
DWIDTH 6 0
BBX 6 13 0 -6
BITMAP
485871
4FBBB0
2FFD80
1FFF60
0DFF40
0BBF30
0A7F20
063800
011100
00EF30
00EF30
002C20
000B00
ENDCHAR
STARTCHAR ncommaaccent
ENCODING 326
SWIDTH 664 0
DWIDTH 6 0
BBX 6 13 0 -6
BITMAP
698586
5FF7F5
3FFCF1
2FFFE0
0EFFB0
0DAF90
0B6F50
041810
000000
00AF60
00BF70
001960
000830
ENDCHAR
STARTCHAR Ncaron
ENCODING 327
SWIDTH 610 0
DWIDTH 6 0
BBX 6 13 0 -2
BITMAP
060140
0E6AA0
07EF30
019700
485871
4FBBB0
2FFD80
1FFF60
0DFF40
0BBF30
0A7F20
063800
011100
ENDCHAR
STARTCHAR ncaron
ENCODING 328
SWIDTH 664 0
DWIDTH 6 0
BBX 6 12 0 -1
BITMAP
042050
08B5E1
02FE80
007910
698586
5FF7F5
3FFCF1
2FFFE0
0EFFB0
0DAF90
0B6F50
041810
ENDCHAR
STARTCHAR Omacron
ENCODING 332
SWIDTH 504 0
DWIDTH 5 0
BBX 5 10 0 -1
BITMAP
4AA700
155300
069400
8FFF30
BFFF40
9E9F40
6D5F30
4E6E00
1EFA00
035200
ENDCHAR
STARTCHAR omacron
ENCODING 333
SWIDTH 545 0
DWIDTH 5 0
BBX 5 10 0 -1
BITMAP
2BA900
155400
079700
8FFF80
BFFFA0
8F8FA0
6F2F70
4F5F30
0DED00
014400
ENDCHAR
STARTCHAR Obreve
ENCODING 334
SWIDTH 504 0
DWIDTH 5 0
BBX 5 11 0 -1
BITMAP
2C0A10
0DED00
013300
069400
8FFF30
BFFF40
9E9F40
6D5F30
4E6E00
1EFA00
035200
ENDCHAR
STARTCHAR obreve
ENCODING 335
SWIDTH 545 0
DWIDTH 5 0
BBX 5 11 0 -1
BITMAP
1D0920
0BEE10
003400
079700
8FFF80
BFFFA0
8F8FA0
6F2F70
4F5F30
0DED00
014400
ENDCHAR
STARTCHAR Ohungarumlaut
ENCODING 336
SWIDTH 504 0
DWIDTH 5 0
BBX 5 12 0 -1
BITMAP
020200
1E4E60
796A00
505000
069400
8FFF30
BFFF40
9E9F40
6D5F30
4E6E00
1EFA00
035200
ENDCHAR
STARTCHAR ohungarumlaut
ENCODING 337
SWIDTH 545 0
DWIDTH 5 0
BBX 5 12 0 -1
BITMAP
020200
0C6C80
4C4C10
414100
079700
8FFF80
BFFFA0
8F8FA0
6F2F70
4F5F30
0DED00
014400
ENDCHAR
STARTCHAR OE
ENCODING 338
SWIDTH 789 0
DWIDTH 7 0
BBX 7 9 0 -2
BITMAP
06999850
8FFFFF60
BFFFFF10
9E9F7600
7D5FF700
4E6F8300
1EFDF900
04736300
00101100
ENDCHAR
STARTCHAR oe
ENCODING 339
SWIDTH 778 0
DWIDTH 7 0
BBX 7 8 0 -1
BITMAP
07988730
8FFFFF40
BFFFFE00
8F8FA800
5E3FC400
2F6F9300
0DEFD600
01434300
ENDCHAR
STARTCHAR Racute
ENCODING 340
SWIDTH 599 0
DWIDTH 5 0
BBX 6 10 0 -1
BITMAP
0001C2
001DA4
48A930
3FFFF2
0DFFF2
0BB8F1
09EDD0
06DD70
05DA90
013240
ENDCHAR
STARTCHAR racute
ENCODING 341
SWIDTH 616 0
DWIDTH 6 0
BBX 6 10 0 -1
BITMAP
0001B4
001CB5
489940
3FFFF5
0DFFF4
0BD7F1
0AEDD0
08EE60
08CB60
033440
ENDCHAR
STARTCHAR Rcommaaccent
ENCODING 342
SWIDTH 599 0
DWIDTH 5 0
BBX 6 12 0 -5
BITMAP
48A930
3FFFF2
0DFFF2
0BB8F1
09EDD0
06DD70
05DA90
014240
01FF00
02FF00
002E00
001A00
ENDCHAR
STARTCHAR rcommaaccent
ENCODING 343
SWIDTH 616 0
DWIDTH 6 0
BBX 6 12 0 -5
BITMAP
489840
3FFFF5
0DFFF4
0BD7F1
0AEDD0
08EE60
08CB60
034440
00EF20
00FF20
002D10
000B00
ENDCHAR
STARTCHAR Rcaron
ENCODING 344
SWIDTH 599 0
DWIDTH 5 0
BBX 6 12 0 -1
BITMAP
051050
0B97D0
04FF60
008900
48A930
3FFFF2
0DFFF2
0BB8F1
09EDD0
06DD70
05DA90
013240
ENDCHAR
STARTCHAR rcaron
ENCODING 345
SWIDTH 616 0
DWIDTH 6 0
BBX 6 12 0 -1
BITMAP
060050
0C88D0
05FF50
008800
489840
3FFFF5
0DFFF4
0BD7F1
0AEDD0
08EE60
08CB60
033440
ENDCHAR
STARTCHAR Sacute
ENCODING 346
SWIDTH 504 0
DWIDTH 5 0
BBX 6 10 0 -1
BITMAP
000690
007C81
059400
6FFF40
BFFF40
BF8C40
5FE700
289F00
4FEA00
044200
ENDCHAR
STARTCHAR sacute
ENCODING 347
SWIDTH 481 0
DWIDTH 4 0
BBX 6 10 0 -1
BITMAP
000780
008C81
06A400
6FFF10
BFFF00
BF9E00
6FD300
17B900
3FD600
065100
ENDCHAR
STARTCHAR Scircumflex
ENCODING 348
SWIDTH 504 0
DWIDTH 5 0
BBX 5 12 0 -1
BITMAP
025200
0BFB00
2E4E40
330430
059400
6FFF40
BFFF40
BF8C40
5FE700
289F00
4FEA00
044200
ENDCHAR
STARTCHAR scircumflex
ENCODING 349
SWIDTH 481 0
DWIDTH 4 0
BBX 5 12 0 -1
BITMAP
035100
0CF900
4D4E20
420520
069400
6FFF10
BFFF00
BF9E00
6FD300
17B900
3FD600
065100
ENDCHAR
STARTCHAR Scedilla
ENCODING 350
SWIDTH 504 0
DWIDTH 5 0
BBX 5 10 0 -3
BITMAP
059400
6FFF40
BFFF40
BF8C40
5FE700
289F00
4FEA00
04E200
01A600
01A700
ENDCHAR
STARTCHAR scedilla
ENCODING 351
SWIDTH 481 0
DWIDTH 4 0
BBX 5 10 0 -3
BITMAP
069400
6FFF10
BFFF00
BF9E00
6FD300
17B900
3FD600
09C100
04B200
03C200
ENDCHAR
STARTCHAR Scaron
ENCODING 352
SWIDTH 503 0
DWIDTH 5 0
BBX 5 13 0 -1
BITMAP
110200
8B2E30
1FDB00
08C400
000000
059400
6FFF40
BFFF40
BF8C30
5FE700
289F00
4FEA00
044200
ENDCHAR
STARTCHAR scaron
ENCODING 353
SWIDTH 479 0
DWIDTH 4 0
BBX 5 13 0 -1
BITMAP
100200
A92E10
3FCA00
0BD300
000000
069300
6FFF10
BFFF00
BF9E00
6FD300
17B900
3FD600
065100
ENDCHAR
STARTCHAR Tcommaaccent
ENCODING 354
SWIDTH 622 0
DWIDTH 6 0
BBX 6 11 0 -4
BITMAP
489861
4FFFE1
1FFFD0
09EC70
00BA00
00C900
00A900
009600
006400
006B00
005C00
ENDCHAR
STARTCHAR tcommaaccent
ENCODING 355
SWIDTH 683 0
DWIDTH 6 0
BBX 6 11 0 -4
BITMAP
48AA95
6FFFF6
1FFFF4
09BF72
007F10
006F00
004F00
003D00
001A00
002A40
002B50
ENDCHAR
STARTCHAR Tcaron
ENCODING 356
SWIDTH 622 0
DWIDTH 6 0
BBX 6 12 0 -1
BITMAP
060140
0E5BA0
08EF20
019700
489861
4FFFE1
1FFFD0
09EC70
00BA00
00C900
00A900
008600
ENDCHAR
STARTCHAR tcaron
ENCODING 357
SWIDTH 622 0
DWIDTH 6 0
BBX 6 12 0 -1
BITMAP
051050
0B88D0
05FF50
008800
489861
4FFFE1
1FFFD0
09EC70
00BA00
00C900
00A900
008600
ENDCHAR
STARTCHAR Utilde
ENCODING 360
SWIDTH 637 0
DWIDTH 6 0
BBX 6 11 0 -1
BITMAP
010200
2EAF90
078530
595572
4F7AF1
2F9BC0
0F7C90
0E7D70
0DAE50
08CC20
011100
ENDCHAR
STARTCHAR utilde
ENCODING 361
SWIDTH 708 0
DWIDTH 6 0
BBX 7 10 0 0
BITMAP
01021000
0CBED000
03956000
48817400
3FC4FD10
0FE3F800
0CE4F400
0BD5F300
07F8F000
03DCA000
ENDCHAR
STARTCHAR Umacron
ENCODING 362
SWIDTH 637 0
DWIDTH 6 0
BBX 6 10 0 -1
BITMAP
07AA40
035520
595572
4F7AF1
2F9BC0
0F7C90
0E7D70
0DAE50
08CC20
011100
ENDCHAR
STARTCHAR umacron
ENCODING 363
SWIDTH 708 0
DWIDTH 6 0
BBX 7 9 0 0
BITMAP
03AA7000
01554000
48817400
3FC4FD10
0FE3F800
0CE4F400
0BD5F300
07F8F000
03DCA000
ENDCHAR
STARTCHAR Ubreve
ENCODING 364
SWIDTH 637 0
DWIDTH 6 0
BBX 6 11 0 -1
BITMAP
068380
03EE80
001420
595572
4F7AF1
2F9BC0
0F7C90
0E7D70
0DAE50
08CC20
011100
ENDCHAR
STARTCHAR ubreve
ENCODING 365
SWIDTH 708 0
DWIDTH 6 0
BBX 7 10 0 0
BITMAP
02C09200
00CED000
00034000
48817400
3FC4FD10
0FE3F800
0CE4F400
0BD5F300
07F8F000
03DCA000
ENDCHAR
STARTCHAR Uring
ENCODING 366
SWIDTH 637 0
DWIDTH 6 0
BBX 6 12 0 -1
BITMAP
001100
02CC10
01BA10
003300
595572
4F7AF1
2F9BC0
0F7C90
0E7D70
0DAE50
08CC20
011100
ENDCHAR
STARTCHAR uring
ENCODING 367
SWIDTH 708 0
DWIDTH 6 0
BBX 7 11 0 0
BITMAP
00020000
00AB7000
00976000
00150000
48817400
3FC4FD10
0FE3F800
0CE4F400
0BD5F300
07F8F000
03DCA000
ENDCHAR
STARTCHAR Uhungarumlaut
ENCODING 368
SWIDTH 637 0
DWIDTH 6 0
BBX 6 12 0 -1
BITMAP
002020
05D5E2
0B5A60
050500
595572
4F7AF1
2F9BC0
0F7C90
0E7D70
0DAE50
08CC20
011100
ENDCHAR
STARTCHAR uhungarumlaut
ENCODING 369
SWIDTH 708 0
DWIDTH 6 0
BBX 7 11 0 0
BITMAP
00202000
01E5E600
06A6A000
05050000
48817400
3FC4FD10
0FE3F800
0CE4F400
0BD5F300
07F8F000
03DCA000
ENDCHAR
STARTCHAR Uogonek
ENCODING 370
SWIDTH 637 0
DWIDTH 6 0
BBX 6 10 0 -3
BITMAP
595572
4F7AF1
2F9BC0
0F7C90
0E7D70
0DAE50
08CD20
015B00
005A10
001CE0
ENDCHAR
STARTCHAR uogonek
ENCODING 371
SWIDTH 662 0
DWIDTH 6 0
BBX 7 10 0 -3
BITMAP
48826400
4FC4FD10
1FE3F800
0DD4F400
0BD6F200
08F8E000
03DDA000
00770000
00881000
003DB000
ENDCHAR
STARTCHAR Wcircumflex
ENCODING 372
SWIDTH 777 0
DWIDTH 7 0
BBX 7 11 0 0
BITMAP
00352000
00CFA000
03D4E300
04204200
264A2840
4F9F8F30
0AEFF900
05FFF400
00EFF200
00BBD000
00689000
ENDCHAR
STARTCHAR wcircumflex
ENCODING 373
SWIDTH 704 0
DWIDTH 6 0
BBX 7 11 0 0
BITMAP
00450000
01EF6000
07A6D000
06106100
47365510
3F9DBB00
0BEFE400
06FFF100
01FFD000
00DCC000
00779000
ENDCHAR
STARTCHAR Ycircumflex
ENCODING 374
SWIDTH 688 0
DWIDTH 6 0
BBX 7 12 0 -1
BITMAP
00450000
02FF5000
08A7D000
06006000
49628400
09F8F810
00CFA000
006F7000
001F6000
000D5000
000C4000
00030000
ENDCHAR
STARTCHAR ycircumflex
ENCODING 375
SWIDTH 604 0
DWIDTH 5 0
BBX 6 12 0 -1
BITMAP
015300
08FD00
1E4D60
240250
493651
0BAE80
03FD00
00EB00
00BA00
009900
00A800
004200
ENDCHAR
STARTCHAR Ydieresis
ENCODING 376
SWIDTH 688 0
DWIDTH 6 0
BBX 7 11 0 -1
BITMAP
04325200
0FC7F600
0B95B400
49628400
09F8F810
00CFA000
006F7000
001F6000
000D5000
000C4000
00030000
ENDCHAR
STARTCHAR Zacute
ENCODING 377
SWIDTH 695 0
DWIDTH 6 0
BBX 7 10 0 -1
BITMAP
00004B00
0005D920
499A8400
6FFFFB00
0EFFF400
088F9000
00AB0000
01E50000
06EF2000
00120000
ENDCHAR
STARTCHAR zacute
ENCODING 378
SWIDTH 622 0
DWIDTH 6 0
BBX 6 10 0 -1
BITMAP
0001A4
000CB6
49AA71
5FFFE1
0EFFA0
089E30
00B700
01E300
04FF10
012400
ENDCHAR
STARTCHAR Zdotaccent
ENCODING 379
SWIDTH 695 0
DWIDTH 6 0
BBX 6 11 0 -1
BITMAP
00AC50
00DF60
00BC50
499984
6FFFFB
0EFFF4
088F90
00AB00
01E500
06EF20
001200
ENDCHAR
STARTCHAR zdotaccent
ENCODING 380
SWIDTH 622 0
DWIDTH 6 0
BBX 6 11 0 -1
BITMAP
05BB00
05FE00
04DB00
49AA71
5FFFE1
0EFFA0
089E30
00B700
01E300
04FF10
012400
ENDCHAR
STARTCHAR Zcaron
ENCODING 381
SWIDTH 693 0
DWIDTH 6 0
BBX 6 13 0 -1
BITMAP
011020
08A3E1
02FD90
009C20
000000
489974
6FFFFB
0EFFF4
088F90
00AA00
01E500
06EF20
001200
ENDCHAR
STARTCHAR zcaron
ENCODING 382
SWIDTH 621 0
DWIDTH 6 0
BBX 6 13 0 -1
BITMAP
030120
1E49A0
08DF30
02B900
000000
49AA71
5FFFE1
0EFFA0
08AE30
00B700
01E300
04FF10
012400
ENDCHAR
STARTCHAR DZ
ENCODING 497
SWIDTH 194 0
DWIDTH 2 0
BBX 1 1 0 0
BITMAP
00
ENDCHAR
STARTCHAR Dz
ENCODING 498
SWIDTH 194 0
DWIDTH 2 0
BBX 1 1 0 0
BITMAP
00
ENDCHAR
STARTCHAR dotlessj
ENCODING 567
SWIDTH 458 0
DWIDTH 4 0
BBX 5 8 -1 -1
BITMAP
008940
008F80
005F50
005F40
024F30
1F7F20
0BFD00
001200
ENDCHAR
STARTCHAR circumflex
ENCODING 710
SWIDTH 528 0
DWIDTH 5 0
BBX 5 4 0 6
BITMAP
035100
0DF900
4C5E20
520520
ENDCHAR
STARTCHAR caron
ENCODING 711
SWIDTH 486 0
DWIDTH 4 0
BBX 5 4 0 6
BITMAP
420500
9B5E10
2FE800
079100
ENDCHAR
STARTCHAR breve
ENCODING 728
SWIDTH 464 0
DWIDTH 4 0
BBX 4 3 0 -1
BITMAP
7748
4EE7
0142
ENDCHAR
STARTCHAR dotaccent
ENCODING 729
SWIDTH 388 0
DWIDTH 4 0
BBX 3 3 0 2
BITMAP
5BB0
5FE0
4DB0
ENDCHAR
STARTCHAR ring
ENCODING 730
SWIDTH 370 0
DWIDTH 3 0
BBX 3 4 0 2
BITMAP
0200
6BA0
6890
1410
ENDCHAR
STARTCHAR ogonek
ENCODING 731
SWIDTH 360 0
DWIDTH 3 0
BBX 3 4 0 0
BITMAP
0100
6700
7910
2DC0
ENDCHAR
STARTCHAR tilde
ENCODING 732
SWIDTH 535 0
DWIDTH 5 0
BBX 5 3 0 -1
BITMAP
010200
7DCF40
196610
ENDCHAR
STARTCHAR hungarumlaut
ENCODING 733
SWIDTH 554 0
DWIDTH 5 0
BBX 5 4 0 6
BITMAP
020200
0D6D80
5B4B10
514100
ENDCHAR
STARTCHAR dotaccentcmb
ENCODING 775
SWIDTH 396 0
DWIDTH 4 0
BBX 3 4 0 3
BITMAP
0220
6FE0
4FF0
2860
ENDCHAR
STARTCHAR uni030F
ENCODING 783
SWIDTH 549 0
DWIDTH 5 0
BBX 5 4 0 6
BITMAP
020200
8C6D00
1C4C40
014140
ENDCHAR
STARTCHAR uni0311
ENCODING 785
SWIDTH 490 0
DWIDTH 4 0
BBX 4 3 0 3
BITMAP
0782
4EBA
5627
ENDCHAR
STARTCHAR uni0326
ENCODING 806
SWIDTH 360 0
DWIDTH 3 0
BBX 3 4 0 -1
BITMAP
6FB0
6FB0
15A0
0470
ENDCHAR
STARTCHAR endash
ENCODING 8211
SWIDTH 478 0
DWIDTH 4 0
BBX 4 3 0 2
BITMAP
2544
7FF9
2653
ENDCHAR
STARTCHAR emdash
ENCODING 8212
SWIDTH 567 0
DWIDTH 5 0
BBX 5 3 0 2
BITMAP
254430
7FFF60
264520
ENDCHAR
STARTCHAR quoteleft
ENCODING 8216
SWIDTH 373 0
DWIDTH 3 0
BBX 3 5 0 2
BITMAP
2600
6800
7EB0
7FD0
5B90
ENDCHAR
STARTCHAR quoteright
ENCODING 8217
SWIDTH 369 0
DWIDTH 3 0
BBX 3 5 0 2
BITMAP
4860
8FB0
9FB0
04A0
0460
ENDCHAR
STARTCHAR quotesinglbase
ENCODING 8218
SWIDTH 369 0
DWIDTH 3 0
BBX 3 5 0 2
BITMAP
4860
8FB0
9FB0
04A0
0460
ENDCHAR
STARTCHAR quotedblleft
ENCODING 8220
SWIDTH 687 0
DWIDTH 6 0
BBX 6 5 0 2
BITMAP
260440
580860
7EB9E9
7FDAFA
5B96B7
ENDCHAR
STARTCHAR quotedblright
ENCODING 8221
SWIDTH 677 0
DWIDTH 6 0
BBX 6 5 0 2
BITMAP
595584
8F9AF8
9F9AF8
158087
055074
ENDCHAR
STARTCHAR quotedblbase
ENCODING 8222
SWIDTH 697 0
DWIDTH 6 0
BBX 6 5 0 -3
BITMAP
596497
8FC8FC
8FB8FC
03A03B
046036
ENDCHAR
STARTCHAR ellipsis
ENCODING 8230
SWIDTH 1462 0
DWIDTH 13 0
BBX 13 4 0 0
BITMAP
02100021000210
7FB007FA008FA0
5FB005FA006FB0
38500375003750
ENDCHAR
STARTCHAR guilsinglleft
ENCODING 8249
SWIDTH 459 0
DWIDTH 4 0
BBX 4 6 0 0
BITMAP
0475
0CF3
9F70
5F90
09F5
0044
ENDCHAR
STARTCHAR guilsinglright
ENCODING 8250
SWIDTH 432 0
DWIDTH 4 0
BBX 4 6 0 0
BITMAP
5840
2EC0
06F7
08F4
6F90
2400
ENDCHAR
STARTCHAR fraction
ENCODING 8260
SWIDTH 371 0
DWIDTH 3 0
BBX 4 8 0 -1
BITMAP
7A91
4FD0
1FA0
1F80
0E70
0C60
0B50
0110
ENDCHAR
STARTCHAR Euro
ENCODING 8364
SWIDTH 587 0
DWIDTH 5 0
BBX 5 9 0 -2
BITMAP
029920
0DFFC0
1FFFD0
0ECCC0
7EB230
5CC950
06EF30
005500
003100
ENDCHAR
STARTCHAR trademark
ENCODING 8482
SWIDTH 785 0
DWIDTH 7 0
BBX 7 5 0 2
BITMAP
7A95A960
9FD4FE70
2B42FE60
0A21CC40
07102210
ENDCHAR
STARTCHAR minus
ENCODING 8722
SWIDTH 478 0
DWIDTH 4 0
BBX 4 3 0 2
BITMAP
2544
7FF9
2653
ENDCHAR
STARTCHAR commaaccent
ENCODING 63171
SWIDTH 360 0
DWIDTH 3 0
BBX 3 5 0 -2
BITMAP
8FB0
8FC0
5AB0
0490
0220
ENDCHAR
STARTCHAR .notdef
ENCODING -1
SWIDTH 365 0
DWIDTH 3 0
BBX 3 6 0 0
BITMAP
6460
4040
4040
4040
4040
6460
ENDCHAR
STARTCHAR .null
ENCODING -1
SWIDTH 0 0
DWIDTH 0 0
BBX 1 1 0 0
BITMAP
00
ENDCHAR
STARTCHAR nonmarkingreturn
ENCODING -1
SWIDTH 333 0
DWIDTH 3 0
BBX 1 1 0 0
BITMAP
00
ENDCHAR
ENDFONT
